<svg xmlns="http://www.w3.org/2000/svg" viewBox="0 0 232 560" width="232" height="560">
  <defs>
    <clipPath id="clip_body_front"><path d="M116,7C112.4,7 107.3,6.45 104,9C100.7,11.55 95.95,18.75 94,24C92.05,29.25 90.7,38.3 91,44C91.3,49.7 94.35,57.65 96,62C97.65,66.35 101.4,69.4 102,73C102.6,76.6 100.6,81.95 100,86C99.4,90.05 100.7,97 98,100C95.3,103 87.7,104.2 82,106C76.3,107.8 66.3,109.9 60,112C53.7,114.1 44.65,115.8 40,120C35.35,124.2 31.4,133.1 29,140C26.6,146.9 25.2,157.6 24,166C22.8,174.4 21.75,187 21,196C20.25,205 19.45,217.9 19,226C18.55,234.1 18.6,242.2 18,250C17.4,257.8 15.9,269.6 15,278C14.1,286.4 12.75,298.2 12,306C11.25,313.8 9.85,322.5 10,330C10.15,337.5 11.35,350 13,356C14.65,362 18.15,369.4 21,370C23.85,370.6 29.75,366 32,360C34.25,354 34.8,338.1 36,330C37.2,321.9 38.8,313.8 40,306C41.2,298.2 42.8,286.4 44,278C45.2,269.6 46.5,259 48,250C49.5,241 52.2,227.3 54,218C55.8,208.7 59.55,189.2 60,188C60.45,186.8 57.3,203.1 57,210C56.7,216.9 56.05,226.8 58,234C59.95,241.2 68.8,250.8 70,258C71.2,265.2 67.8,275.4 66,282C64.2,288.6 59.2,296 58,302C56.8,308 57.4,313.9 58,322C58.6,330.1 60.65,344.3 62,356C63.35,367.7 65.8,388.3 67,400C68.2,411.7 69.85,425.3 70,434C70.15,442.7 68.75,450.2 68,458C67.25,465.8 64.4,477.9 65,486C65.6,494.1 70.05,506.3 72,512C73.95,517.7 77.7,519.5 78,524C78.3,528.5 74.3,537.5 74,542C73.7,546.5 71.5,551.9 76,554C80.5,556.1 99.5,558.4 104,556C108.5,553.6 106.6,542.8 106,538C105.4,533.2 100.45,530 100,524C99.55,518 101.95,506.1 103,498C104.05,489.9 106.7,478.4 107,470C107.3,461.6 105,450.7 105,442C105,433.3 106.25,424 107,412C107.75,400 109.1,374.3 110,362C110.9,349.7 112.1,336.9 113,330C113.9,323.1 115.1,316 116,316C116.9,316 118.1,323.1 119,330C119.9,336.9 121.1,349.7 122,362C122.9,374.3 124.25,400 125,412C125.75,424 127,433.3 127,442C127,450.7 124.7,461.6 125,470C125.3,478.4 127.95,489.9 129,498C130.05,506.1 132.45,518 132,524C131.55,530 126.6,533.2 126,538C125.4,542.8 123.5,553.6 128,556C132.5,558.4 151.5,556.1 156,554C160.5,551.9 158.3,546.5 158,542C157.7,537.5 153.7,528.5 154,524C154.3,519.5 158.05,517.7 160,512C161.95,506.3 166.4,494.1 167,486C167.6,477.9 164.75,465.8 164,458C163.25,450.2 161.85,442.7 162,434C162.15,425.3 163.8,411.7 165,400C166.2,388.3 168.65,367.7 170,356C171.35,344.3 173.4,330.1 174,322C174.6,313.9 175.2,308 174,302C172.8,296 167.8,288.6 166,282C164.2,275.4 160.8,265.2 162,258C163.2,250.8 172.05,241.2 174,234C175.95,226.8 175.3,216.9 175,210C174.7,203.1 171.55,186.8 172,188C172.45,189.2 176.2,208.7 178,218C179.8,227.3 182.5,241 184,250C185.5,259 186.8,269.6 188,278C189.2,286.4 190.8,298.2 192,306C193.2,313.8 194.8,321.9 196,330C197.2,338.1 197.75,354 200,360C202.25,366 208.15,370.6 211,370C213.85,369.4 217.35,362 219,356C220.65,350 221.85,337.5 222,330C222.15,322.5 220.75,313.8 220,306C219.25,298.2 217.9,286.4 217,278C216.1,269.6 214.6,257.8 214,250C213.4,242.2 213.45,234.1 213,226C212.55,217.9 211.75,205 211,196C210.25,187 209.2,174.4 208,166C206.8,157.6 205.4,146.9 203,140C200.6,133.1 196.65,124.2 192,120C187.35,115.8 178.3,114.1 172,112C165.7,109.9 155.7,107.8 150,106C144.3,104.2 136.7,103 134,100C131.3,97 132.6,90.05 132,86C131.4,81.95 129.4,76.6 130,73C130.6,69.4 134.35,66.35 136,62C137.65,57.65 140.7,49.7 141,44C141.3,38.3 139.95,29.25 138,24C136.05,18.75 131.3,11.55 128,9C124.7,6.45 119.6,7 116,7Z"/></clipPath>
  </defs>
  <g id="body_front">
    <path id="base__silhouette" d="M116,7C112.4,7 107.3,6.45 104,9C100.7,11.55 95.95,18.75 94,24C92.05,29.25 90.7,38.3 91,44C91.3,49.7 94.35,57.65 96,62C97.65,66.35 101.4,69.4 102,73C102.6,76.6 100.6,81.95 100,86C99.4,90.05 100.7,97 98,100C95.3,103 87.7,104.2 82,106C76.3,107.8 66.3,109.9 60,112C53.7,114.1 44.65,115.8 40,120C35.35,124.2 31.4,133.1 29,140C26.6,146.9 25.2,157.6 24,166C22.8,174.4 21.75,187 21,196C20.25,205 19.45,217.9 19,226C18.55,234.1 18.6,242.2 18,250C17.4,257.8 15.9,269.6 15,278C14.1,286.4 12.75,298.2 12,306C11.25,313.8 9.85,322.5 10,330C10.15,337.5 11.35,350 13,356C14.65,362 18.15,369.4 21,370C23.85,370.6 29.75,366 32,360C34.25,354 34.8,338.1 36,330C37.2,321.9 38.8,313.8 40,306C41.2,298.2 42.8,286.4 44,278C45.2,269.6 46.5,259 48,250C49.5,241 52.2,227.3 54,218C55.8,208.7 59.55,189.2 60,188C60.45,186.8 57.3,203.1 57,210C56.7,216.9 56.05,226.8 58,234C59.95,241.2 68.8,250.8 70,258C71.2,265.2 67.8,275.4 66,282C64.2,288.6 59.2,296 58,302C56.8,308 57.4,313.9 58,322C58.6,330.1 60.65,344.3 62,356C63.35,367.7 65.8,388.3 67,400C68.2,411.7 69.85,425.3 70,434C70.15,442.7 68.75,450.2 68,458C67.25,465.8 64.4,477.9 65,486C65.6,494.1 70.05,506.3 72,512C73.95,517.7 77.7,519.5 78,524C78.3,528.5 74.3,537.5 74,542C73.7,546.5 71.5,551.9 76,554C80.5,556.1 99.5,558.4 104,556C108.5,553.6 106.6,542.8 106,538C105.4,533.2 100.45,530 100,524C99.55,518 101.95,506.1 103,498C104.05,489.9 106.7,478.4 107,470C107.3,461.6 105,450.7 105,442C105,433.3 106.25,424 107,412C107.75,400 109.1,374.3 110,362C110.9,349.7 112.1,336.9 113,330C113.9,323.1 115.1,316 116,316C116.9,316 118.1,323.1 119,330C119.9,336.9 121.1,349.7 122,362C122.9,374.3 124.25,400 125,412C125.75,424 127,433.3 127,442C127,450.7 124.7,461.6 125,470C125.3,478.4 127.95,489.9 129,498C130.05,506.1 132.45,518 132,524C131.55,530 126.6,533.2 126,538C125.4,542.8 123.5,553.6 128,556C132.5,558.4 151.5,556.1 156,554C160.5,551.9 158.3,546.5 158,542C157.7,537.5 153.7,528.5 154,524C154.3,519.5 158.05,517.7 160,512C161.95,506.3 166.4,494.1 167,486C167.6,477.9 164.75,465.8 164,458C163.25,450.2 161.85,442.7 162,434C162.15,425.3 163.8,411.7 165,400C166.2,388.3 168.65,367.7 170,356C171.35,344.3 173.4,330.1 174,322C174.6,313.9 175.2,308 174,302C172.8,296 167.8,288.6 166,282C164.2,275.4 160.8,265.2 162,258C163.2,250.8 172.05,241.2 174,234C175.95,226.8 175.3,216.9 175,210C174.7,203.1 171.55,186.8 172,188C172.45,189.2 176.2,208.7 178,218C179.8,227.3 182.5,241 184,250C185.5,259 186.8,269.6 188,278C189.2,286.4 190.8,298.2 192,306C193.2,313.8 194.8,321.9 196,330C197.2,338.1 197.75,354 200,360C202.25,366 208.15,370.6 211,370C213.85,369.4 217.35,362 219,356C220.65,350 221.85,337.5 222,330C222.15,322.5 220.75,313.8 220,306C219.25,298.2 217.9,286.4 217,278C216.1,269.6 214.6,257.8 214,250C213.4,242.2 213.45,234.1 213,226C212.55,217.9 211.75,205 211,196C210.25,187 209.2,174.4 208,166C206.8,157.6 205.4,146.9 203,140C200.6,133.1 196.65,124.2 192,120C187.35,115.8 178.3,114.1 172,112C165.7,109.9 155.7,107.8 150,106C144.3,104.2 136.7,103 134,100C131.3,97 132.6,90.05 132,86C131.4,81.95 129.4,76.6 130,73C130.6,69.4 134.35,66.35 136,62C137.65,57.65 140.7,49.7 141,44C141.3,38.3 139.95,29.25 138,24C136.05,18.75 131.3,11.55 128,9C124.7,6.45 119.6,7 116,7Z" fill="#5a6d85"/>
    <g id="regions" clip-path="url(#clip_body_front)" stroke="#243348" stroke-width="1.1" stroke-linejoin="round">
      <path id="base__cranium" d="M116,7C112.2,7 107.48,6.31 104,9C100.52,11.69 96.06,18.46 94,24C91.94,29.54 90.68,37.98 91,44C91.32,50.02 94.26,57.41 96,62C97.74,66.59 98.83,70.31 102,73C105.17,75.69 111.57,79 116,79C120.43,79 126.83,75.69 130,73C133.17,70.31 134.26,66.59 136,62C137.74,57.41 140.68,50.02 141,44C141.32,37.98 140.06,29.54 138,24C135.94,18.46 131.48,11.69 128,9C124.52,6.31 119.8,7 116,7Z" fill="#6b7f97"/>
      <path id="base__neck" d="M102,72C97.61,74.55 99.57,85.47 99,90C98.43,94.53 95.59,101.45 98,104C100.41,106.55 110.9,108 116,108C121.1,108 131.59,106.55 134,104C136.41,101.45 133.57,94.53 133,90C132.43,85.47 134.39,74.55 130,72C125.61,69.45 106.39,69.45 102,72Z" fill="#6b7f97"/>
      <path id="muscle__traps__upper__right" data-muscle="traps" data-part="upper" data-side="right" d="M103,78C101.65,78.3 102.15,92.4 99,96C95.85,99.6 87.85,99.9 82,102C76.15,104.1 65.25,107.3 60,110C54.75,112.7 47.6,117 47,120C46.4,123 51.05,130.3 56,130C60.95,129.7 73.25,121 80,118C86.75,115 96.8,113.6 101,110C105.2,106.4 107.7,98.8 108,94C108.3,89.2 104.35,77.7 103,78Z" fill="#93a9c0"/>
      <path id="muscle__traps__upper__left" data-muscle="traps" data-part="upper" data-side="left" d="M124,94C124.3,98.8 126.8,106.4 131,110C135.2,113.6 145.25,115 152,118C158.75,121 171.05,129.7 176,130C180.95,130.3 185.6,123 185,120C184.4,117 177.25,112.7 172,110C166.75,107.3 155.85,104.1 150,102C144.15,99.9 136.15,99.6 133,96C129.85,92.4 130.35,78.3 129,78C127.65,77.7 123.7,89.2 124,94Z" fill="#93a9c0"/>
      <path id="muscle__sideDelts__right" data-muscle="sideDelts" data-side="right" d="M48,112C45.67,111 36.33,115.67 32,122C27.67,128.33 24,140 22,150C20,160 19,174 20,182C21,190 24.67,196 28,198C31.33,200 37.67,200.67 40,194C42.33,187.33 41,169 42,158C43,147 45,135.67 46,128C47,120.33 50.33,113 48,112Z" fill="#93a9c0"/>
      <path id="muscle__sideDelts__left" data-muscle="sideDelts" data-side="left" d="M186,128C187,135.67 189,147 190,158C191,169 189.67,187.33 192,194C194.33,200.67 200.67,200 204,198C207.33,196 211,190 212,182C213,174 212,160 210,150C208,140 204.33,128.33 200,122C195.67,115.67 186.33,111 184,112C181.67,113 185,120.33 186,128Z" fill="#93a9c0"/>
      <path id="muscle__frontDelts__right" data-muscle="frontDelts" data-side="right" d="M66,112C63,108.33 54.17,113.33 50,118C45.83,122.67 42.67,131.67 41,140C39.33,148.33 39,159 40,168C41,177 43.67,189 47,194C50.33,199 56.83,201 60,198C63.17,195 64.67,185.67 66,176C67.33,166.33 68,150.67 68,140C68,129.33 69,115.67 66,112Z" fill="#93a9c0"/>
      <path id="muscle__frontDelts__left" data-muscle="frontDelts" data-side="left" d="M164,140C164,150.67 164.67,166.33 166,176C167.33,185.67 168.83,195 172,198C175.17,201 181.67,199 185,194C188.33,189 191,177 192,168C193,159 192.67,148.33 191,140C189.33,131.67 186.17,122.67 182,118C177.83,113.33 169,108.33 166,112C163,115.67 164,129.33 164,140Z" fill="#93a9c0"/>
      <path id="muscle__chest__clavicular__right" data-muscle="chest" data-part="clavicular" data-side="right" d="M112,104C108.25,102.2 93.05,107.6 86,110C78.95,112.4 69.95,116.4 65,120C60.05,123.6 54.8,129.5 53,134C51.2,138.5 50.45,147.9 53,150C55.55,152.1 64.45,150.1 70,148C75.55,145.9 83.85,139.9 90,136C96.15,132.1 107.7,126.8 111,122C114.3,117.2 115.75,105.8 112,104Z" fill="#93a9c0"/>
      <path id="muscle__chest__clavicular__left" data-muscle="chest" data-part="clavicular" data-side="left" d="M121,122C124.3,126.8 135.85,132.1 142,136C148.15,139.9 156.45,145.9 162,148C167.55,150.1 176.45,152.1 179,150C181.55,147.9 180.8,138.5 179,134C177.2,129.5 171.95,123.6 167,120C162.05,116.4 153.05,112.4 146,110C138.95,107.6 123.75,102.2 120,104C116.25,105.8 117.7,117.2 121,122Z" fill="#93a9c0"/>
      <path id="muscle__chest__sternal__right" data-muscle="chest" data-part="sternal" data-side="right" d="M112,132C112,132 112,204 112,204C112,204 101.1,210 96,210C90.9,210 82.8,207.3 78,204C73.2,200.7 67.6,194 64,188C60.4,182 55.5,170 54,164C52.5,158 51.3,150.4 54,148C56.7,145.6 66,148.9 72,148C78,147.1 88.3,143.8 94,142C99.7,140.2 107.3,137.5 110,136C112.7,134.5 112,132 112,132Z" fill="#93a9c0"/>
      <path id="muscle__chest__sternal__left" data-muscle="chest" data-part="sternal" data-side="left" d="M122,136C124.7,137.5 132.3,140.2 138,142C143.7,143.8 154,147.1 160,148C166,148.9 175.3,145.6 178,148C180.7,150.4 179.5,158 178,164C176.5,170 171.6,182 168,188C164.4,194 158.8,200.7 154,204C149.2,207.3 141.1,210 136,210C130.9,210 120,204 120,204C120,204 120,132 120,132C120,132 119.3,134.5 122,136Z" fill="#93a9c0"/>
      <path id="muscle__biceps__right" data-muscle="biceps" data-side="right" d="M60,176C57.17,174.67 46.33,180.67 41,188C35.67,195.33 30.83,209 28,220C25.17,231 21.67,247 24,254C26.33,261 37.33,266.33 42,262C46.67,257.67 49.33,239 52,228C54.67,217 56.67,204.67 58,196C59.33,187.33 62.83,177.33 60,176Z" fill="#93a9c0"/>
      <path id="muscle__biceps__left" data-muscle="biceps" data-side="left" d="M174,196C175.33,204.67 177.33,217 180,228C182.67,239 185.33,257.67 190,262C194.67,266.33 205.67,261 208,254C210.33,247 206.83,231 204,220C201.17,209 196.33,195.33 191,188C185.67,180.67 174.83,174.67 172,176C169.17,177.33 172.67,187.33 174,196Z" fill="#93a9c0"/>
      <path id="muscle__brachialis__right" data-muscle="brachialis" data-side="right" d="M32,210C29.17,211 23.17,229.67 21,238C18.83,246.33 17,255.67 19,260C21,264.33 29.83,268.67 33,264C36.17,259.33 38.17,241 38,232C37.83,223 34.83,209 32,210Z" fill="#93a9c0"/>
      <path id="muscle__brachialis__left" data-muscle="brachialis" data-side="left" d="M194,232C193.83,241 195.83,259.33 199,264C202.17,268.67 211,264.33 213,260C215,255.67 213.17,246.33 211,238C208.83,229.67 202.83,211 200,210C197.17,209 194.17,223 194,232Z" fill="#93a9c0"/>
      <path id="muscle__brachioradialis__right" data-muscle="brachioradialis" data-side="right" d="M35,246C32.5,246 22.33,259 18,268C13.67,277 11.17,289 9,300C6.83,311 2.83,327.33 5,334C7.17,340.67 18.17,345.67 22,340C25.83,334.33 26.17,312 28,300C29.83,288 31.83,277 33,268C34.17,259 37.5,246 35,246Z" fill="#93a9c0"/>
      <path id="muscle__brachioradialis__left" data-muscle="brachioradialis" data-side="left" d="M199,268C200.17,277 202.17,288 204,300C205.83,312 206.17,334.33 210,340C213.83,345.67 224.83,340.67 227,334C229.17,327.33 225.17,311 223,300C220.83,289 218.33,277 214,268C209.67,259 199.5,246 197,246C194.5,246 197.83,259 199,268Z" fill="#93a9c0"/>
      <path id="muscle__forearms__flexors__right" data-muscle="forearms" data-part="flexors" data-side="right" d="M51,248C49.5,248 42.67,263 39,272C35.33,281 31.67,291.67 29,302C26.33,312.33 21.67,327.67 23,334C24.33,340.33 33.67,345.33 37,340C40.33,334.67 41.17,313.33 43,302C44.83,290.67 46.67,281 48,272C49.33,263 52.5,248 51,248Z" fill="#93a9c0"/>
      <path id="muscle__forearms__flexors__left" data-muscle="forearms" data-part="flexors" data-side="left" d="M184,272C185.33,281 187.17,290.67 189,302C190.83,313.33 191.67,334.67 195,340C198.33,345.33 207.67,340.33 209,334C210.33,327.67 205.67,312.33 203,302C200.33,291.67 196.67,281 193,272C189.33,263 182.5,248 181,248C179.5,248 182.67,263 184,272Z" fill="#93a9c0"/>
      <path id="base__hand__right" d="M11,330C9.73,333.97 8.72,344.9 9,350C9.28,355.1 11.16,362.88 13,366C14.84,369.12 19.31,372.85 22,372C24.69,371.15 30.02,364.82 32,360C33.98,355.18 36,343.1 36,338C36,332.9 34.55,326.27 32,324C29.45,321.73 20.98,321.15 18,322C15.03,322.85 12.28,326.03 11,330Z" fill="#6b7f97"/>
      <path id="base__hand__left" d="M214,322C211.03,321.15 202.55,321.73 200,324C197.45,326.27 196,332.9 196,338C196,343.1 198.02,355.18 200,360C201.98,364.82 207.31,371.15 210,372C212.69,372.85 217.16,369.12 219,366C220.84,362.88 222.72,355.1 223,350C223.28,344.9 222.28,333.97 221,330C219.73,326.03 216.98,322.85 214,322Z" fill="#6b7f97"/>
      <path id="muscle__serratusAnterior__right" data-muscle="serratusAnterior" data-side="right" d="M66,186C63.87,185.2 57.6,190.53 56,194C54.4,197.47 53.73,206.93 54,212C54.27,217.07 56.4,227.73 58,232C59.6,236.27 63.87,243.2 66,244C68.13,244.8 72.93,241.47 74,238C75.07,234.53 74.27,223.07 74,218C73.73,212.93 73.07,204.27 72,200C70.93,195.73 68.13,186.8 66,186Z" fill="#93a9c0"/>
      <path id="muscle__serratusAnterior__left" data-muscle="serratusAnterior" data-side="left" d="M160,200C158.93,204.27 158.27,212.93 158,218C157.73,223.07 156.93,234.53 158,238C159.07,241.47 163.87,244.8 166,244C168.13,243.2 172.4,236.27 174,232C175.6,227.73 177.73,217.07 178,212C178.27,206.93 177.6,197.47 176,194C174.4,190.53 168.13,185.2 166,186C163.87,186.8 161.07,195.73 160,200Z" fill="#93a9c0"/>
      <path id="muscle__obliques__right" data-muscle="obliques" data-side="right" d="M74,206C70.83,205.05 64.85,215.67 62,222C59.15,228.33 56.32,238.08 56,246C55.68,253.92 57.47,264.72 60,272C62.53,279.28 67.88,287.88 72,292C76.12,296.12 83.15,299.9 86,298C88.85,296.1 90,286.97 90,280C90,273.03 87.27,262.23 86,254C84.73,245.77 83.9,235.6 82,228C80.1,220.4 77.17,206.95 74,206Z" fill="#93a9c0"/>
      <path id="muscle__obliques__left" data-muscle="obliques" data-side="left" d="M150,228C148.1,235.6 147.27,245.77 146,254C144.73,262.23 142,273.03 142,280C142,286.97 143.15,296.1 146,298C148.85,299.9 155.88,296.12 160,292C164.12,287.88 169.47,279.28 172,272C174.53,264.72 176.32,253.92 176,246C175.68,238.08 172.85,228.33 170,222C167.15,215.67 161.17,205.05 158,206C154.83,206.95 151.9,220.4 150,228Z" fill="#93a9c0"/>
      <path id="muscle__abs__upper__right" data-muscle="abs" data-part="upper" data-side="right" d="M113,198C113,198 113,228 113,228C113,228 93.6,229.6 91,228C88.4,226.4 87.3,214.8 87,212C86.7,209.2 86.7,201.6 88,200C89.3,198.4 97.5,196.2 100,196C102.5,195.8 113,198 113,198Z" fill="#93a9c0"/>
      <path id="muscle__abs__upper__left" data-muscle="abs" data-part="upper" data-side="left" d="M132,196C134.5,196.2 142.7,198.4 144,200C145.3,201.6 145.3,209.2 145,212C144.7,214.8 143.6,226.4 141,228C138.4,229.6 119,228 119,228C119,228 119,198 119,198C119,198 129.5,195.8 132,196Z" fill="#93a9c0"/>
      <path id="muscle__abs__mid__right" data-muscle="abs" data-part="mid" data-side="right" d="M113,232C113,232 113,262 113,262C113,262 93.5,263.6 91,262C88.5,260.4 88.3,249 88,246C87.7,243 85.5,233.4 88,232C90.5,230.6 113,232 113,232Z" fill="#93a9c0"/>
      <path id="muscle__abs__mid__left" data-muscle="abs" data-part="mid" data-side="left" d="M144,232C146.5,233.4 144.3,243 144,246C143.7,249 143.5,260.4 141,262C138.5,263.6 119,262 119,262C119,262 119,232 119,232C119,232 141.5,230.6 144,232Z" fill="#93a9c0"/>
      <path id="muscle__abs__lower__right" data-muscle="abs" data-part="lower" data-side="right" d="M113,266C113,266 113,310 113,310C113,310 97.4,308.2 95,306C92.6,303.8 89.6,291.8 89,288C88.4,284.2 86.6,270.2 89,268C91.4,265.8 113,266 113,266Z" fill="#93a9c0"/>
      <path id="muscle__abs__lower__left" data-muscle="abs" data-part="lower" data-side="left" d="M143,268C145.4,270.2 143.6,284.2 143,288C142.4,291.8 139.4,303.8 137,306C134.6,308.2 119,310 119,310C119,310 119,266 119,266C119,266 140.6,265.8 143,268Z" fill="#93a9c0"/>
      <path id="muscle__hipFlexors__right" data-muscle="hipFlexors" data-side="right" d="M88,284C84.52,284 79.48,287.15 76,290C72.52,292.85 66.63,297.57 66,302C65.37,306.43 68.2,315.15 72,318C75.8,320.85 85.57,321.9 90,320C94.43,318.1 98.73,310.75 100,306C101.27,301.25 99.9,293.48 98,290C96.1,286.52 91.48,284 88,284Z" fill="#93a9c0"/>
      <path id="muscle__hipFlexors__left" data-muscle="hipFlexors" data-side="left" d="M134,290C132.1,293.48 130.73,301.25 132,306C133.27,310.75 137.57,318.1 142,320C146.43,321.9 156.2,320.85 160,318C163.8,315.15 166.63,306.43 166,302C165.37,297.57 159.48,292.85 156,290C152.52,287.15 147.48,284 144,284C140.52,284 135.9,286.52 134,290Z" fill="#93a9c0"/>
      <path id="muscle__tfl__right" data-muscle="tfl" data-side="right" d="M70,286C67.33,284.33 60.5,289.67 58,294C55.5,298.33 54.67,306.33 55,312C55.33,317.67 57.5,326 60,328C62.5,330 67.67,328 70,324C72.33,320 74,310.33 74,304C74,297.67 72.67,287.67 70,286Z" fill="#93a9c0"/>
      <path id="muscle__tfl__left" data-muscle="tfl" data-side="left" d="M158,304C158,310.33 159.67,320 162,324C164.33,328 169.5,330 172,328C174.5,326 176.67,317.67 177,312C177.33,306.33 176.5,298.33 174,294C171.5,289.67 164.67,284.33 162,286C159.33,287.67 158,297.67 158,304Z" fill="#93a9c0"/>
      <path id="muscle__adductors__right" data-muscle="adductors" data-side="right" d="M115,317C113.67,313 108.67,319.83 106,324C103.33,328.17 100.67,334.67 99,342C97.33,349.33 96.17,359.33 96,368C95.83,376.67 96.33,388.5 98,394C99.67,399.5 103.83,404 106,401C108.17,398 109.67,384.83 111,376C112.33,367.17 113.33,357.83 114,348C114.67,338.17 116.33,321 115,317Z" fill="#93a9c0"/>
      <path id="muscle__adductors__left" data-muscle="adductors" data-side="left" d="M118,348C118.67,357.83 119.67,367.17 121,376C122.33,384.83 123.83,398 126,401C128.17,404 132.33,399.5 134,394C135.67,388.5 136.17,376.67 136,368C135.83,359.33 134.67,349.33 133,342C131.33,334.67 128.67,328.17 126,324C123.33,319.83 118.33,313 117,317C115.67,321 117.33,338.17 118,348Z" fill="#93a9c0"/>
      <path id="muscle__quads__vastus_lateralis__right" data-muscle="quads" data-part="vastus_lateralis" data-side="right" d="M86,322C82.67,319.33 72.5,325.33 68,332C63.5,338.67 60.67,351 59,362C57.33,373 57.33,387.33 58,398C58.67,408.67 60.33,419.33 63,426C65.67,432.67 70.17,437.67 74,438C77.83,438.33 83.67,436.33 86,428C88.33,419.67 87.67,401.33 88,388C88.33,374.67 88.33,359 88,348C87.67,337 89.33,324.67 86,322Z" fill="#93a9c0"/>
      <path id="muscle__quads__vastus_lateralis__left" data-muscle="quads" data-part="vastus_lateralis" data-side="left" d="M144,348C143.67,359 143.67,374.67 144,388C144.33,401.33 143.67,419.67 146,428C148.33,436.33 154.17,438.33 158,438C161.83,437.67 166.33,432.67 169,426C171.67,419.33 173.33,408.67 174,398C174.67,387.33 174.67,373 173,362C171.33,351 168.5,338.67 164,332C159.5,325.33 149.33,319.33 146,322C142.67,324.67 144.33,337 144,348Z" fill="#93a9c0"/>
      <path id="muscle__quads__rectus_femoris__right" data-muscle="quads" data-part="rectus_femoris" data-side="right" d="M100,326C97.33,326.33 89.67,333 87,342C84.33,351 84.5,367.67 84,380C83.5,392.33 83.17,406.33 84,416C84.83,425.67 86.33,434 89,438C91.67,442 97.67,444.33 100,440C102.33,435.67 102.5,424 103,412C103.5,400 103,380 103,368C103,356 103.5,347 103,340C102.5,333 102.67,325.67 100,326Z" fill="#93a9c0"/>
      <path id="muscle__quads__rectus_femoris__left" data-muscle="quads" data-part="rectus_femoris" data-side="left" d="M129,340C128.5,347 129,356 129,368C129,380 128.5,400 129,412C129.5,424 129.67,435.67 132,440C134.33,444.33 140.33,442 143,438C145.67,434 147.17,425.67 148,416C148.83,406.33 148.5,392.33 148,380C147.5,367.67 147.67,351 145,342C142.33,333 134.67,326.33 132,326C129.33,325.67 129.5,333 129,340Z" fill="#93a9c0"/>
      <path id="muscle__quads__vastus_medialis__right" data-muscle="quads" data-part="vastus_medialis" data-side="right" d="M106,368C104,370.33 101,383.33 100,392C99,400.67 99,412 100,420C101,428 104,437.33 106,440C108,442.67 110.67,442 112,436C113.33,430 114,413.67 114,404C114,394.33 113.33,384 112,378C110.67,372 108,365.67 106,368Z" fill="#93a9c0"/>
      <path id="muscle__quads__vastus_medialis__left" data-muscle="quads" data-part="vastus_medialis" data-side="left" d="M120,378C118.67,384 118,394.33 118,404C118,413.67 118.67,430 120,436C121.33,442 124,442.67 126,440C128,437.33 131,428 132,420C133,412 133,400.67 132,392C131,383.33 128,370.33 126,368C124,365.67 121.33,372 120,378Z" fill="#93a9c0"/>
      <path id="base__knee__right" d="M72,440C68.85,442.4 67.45,448.1 67,452C66.55,455.9 66.75,463 69,466C71.25,469 77.95,471.4 82,472C86.05,472.6 92.7,472.1 96,470C99.3,467.9 102.8,461.9 104,458C105.2,454.1 106.4,447.3 104,444C101.6,440.7 92.8,436.6 88,436C83.2,435.4 75.15,437.6 72,440Z" fill="#6b7f97"/>
      <path id="base__knee__left" d="M144,436C139.2,436.6 130.4,440.7 128,444C125.6,447.3 126.8,454.1 128,458C129.2,461.9 132.7,467.9 136,470C139.3,472.1 145.95,472.6 150,472C154.05,471.4 160.75,469 163,466C165.25,463 165.45,455.9 165,452C164.55,448.1 163.15,442.4 160,440C156.85,437.6 148.8,435.4 144,436Z" fill="#6b7f97"/>
      <path id="muscle__peroneals__right" data-muscle="peroneals" data-side="right" d="M76,476C73.67,476 68,485.67 66,492C64,498.33 63,508.33 64,514C65,519.67 69.33,526 72,526C74.67,526 78.67,519.67 80,514C81.33,508.33 80.67,498.33 80,492C79.33,485.67 78.33,476 76,476Z" fill="#93a9c0"/>
      <path id="muscle__peroneals__left" data-muscle="peroneals" data-side="left" d="M152,492C151.33,498.33 150.67,508.33 152,514C153.33,519.67 157.33,526 160,526C162.67,526 167,519.67 168,514C169,508.33 168,498.33 166,492C164,485.67 158.33,476 156,476C153.67,476 152.67,485.67 152,492Z" fill="#93a9c0"/>
      <path id="muscle__tibialis__right" data-muscle="tibialis" data-side="right" d="M88,470C86,471 82,479.67 80,486C78,492.33 76,501.33 76,508C76,514.67 78,523.33 80,526C82,528.67 86,528.33 88,524C90,519.67 91.33,507.33 92,500C92.67,492.67 92.67,485 92,480C91.33,475 90,469 88,470Z" fill="#93a9c0"/>
      <path id="muscle__tibialis__left" data-muscle="tibialis" data-side="left" d="M140,480C139.33,485 139.33,492.67 140,500C140.67,507.33 142,519.67 144,524C146,528.33 150,528.67 152,526C154,523.33 156,514.67 156,508C156,501.33 154,492.33 152,486C150,479.67 146,471 144,470C142,469 140.67,475 140,480Z" fill="#93a9c0"/>
      <path id="muscle__calves__gastrocnemius_medial__right" data-muscle="calves" data-part="gastrocnemius_medial" data-side="right" d="M96,470C98.17,469 103.17,479.33 105,486C106.83,492.67 107.83,503.67 107,510C106.17,516.33 102.33,522.67 100,524C97.67,525.33 94.33,523.33 93,518C91.67,512.67 91.5,500 92,492C92.5,484 93.83,471 96,470Z" fill="#93a9c0"/>
      <path id="muscle__calves__gastrocnemius_medial__left" data-muscle="calves" data-part="gastrocnemius_medial" data-side="left" d="M140,492C140.5,500 140.33,512.67 139,518C137.67,523.33 134.33,525.33 132,524C129.67,522.67 125.83,516.33 125,510C124.17,503.67 125.17,492.67 127,486C128.83,479.33 133.83,469 136,470C138.17,471 139.5,484 140,492Z" fill="#93a9c0"/>
      <path id="muscle__feet__dorsum__right" data-muscle="feet" data-part="dorsum" data-side="right" d="M80,522C77.2,524.67 73.33,534.27 72,538C70.67,541.73 69.2,547.6 70,550C70.8,552.4 73.47,555.2 78,556C82.53,556.8 100,557.33 104,556C108,554.67 108,549.47 108,546C108,542.53 106,533.73 104,530C102,526.27 96.2,519.07 93,518C89.8,516.93 82.8,519.33 80,522Z" fill="#93a9c0"/>
      <path id="muscle__feet__dorsum__left" data-muscle="feet" data-part="dorsum" data-side="left" d="M139,518C135.8,519.07 130,526.27 128,530C126,533.73 124,542.53 124,546C124,549.47 124,554.67 128,556C132,557.33 149.47,556.8 154,556C158.53,555.2 161.2,552.4 162,550C162.8,547.6 161.33,541.73 160,538C158.67,534.27 154.8,524.67 152,522C149.2,519.33 142.2,516.93 139,518Z" fill="#93a9c0"/>
    </g>
    <path id="base__contour" d="M116,7C112.4,7 107.3,6.45 104,9C100.7,11.55 95.95,18.75 94,24C92.05,29.25 90.7,38.3 91,44C91.3,49.7 94.35,57.65 96,62C97.65,66.35 101.4,69.4 102,73C102.6,76.6 100.6,81.95 100,86C99.4,90.05 100.7,97 98,100C95.3,103 87.7,104.2 82,106C76.3,107.8 66.3,109.9 60,112C53.7,114.1 44.65,115.8 40,120C35.35,124.2 31.4,133.1 29,140C26.6,146.9 25.2,157.6 24,166C22.8,174.4 21.75,187 21,196C20.25,205 19.45,217.9 19,226C18.55,234.1 18.6,242.2 18,250C17.4,257.8 15.9,269.6 15,278C14.1,286.4 12.75,298.2 12,306C11.25,313.8 9.85,322.5 10,330C10.15,337.5 11.35,350 13,356C14.65,362 18.15,369.4 21,370C23.85,370.6 29.75,366 32,360C34.25,354 34.8,338.1 36,330C37.2,321.9 38.8,313.8 40,306C41.2,298.2 42.8,286.4 44,278C45.2,269.6 46.5,259 48,250C49.5,241 52.2,227.3 54,218C55.8,208.7 59.55,189.2 60,188C60.45,186.8 57.3,203.1 57,210C56.7,216.9 56.05,226.8 58,234C59.95,241.2 68.8,250.8 70,258C71.2,265.2 67.8,275.4 66,282C64.2,288.6 59.2,296 58,302C56.8,308 57.4,313.9 58,322C58.6,330.1 60.65,344.3 62,356C63.35,367.7 65.8,388.3 67,400C68.2,411.7 69.85,425.3 70,434C70.15,442.7 68.75,450.2 68,458C67.25,465.8 64.4,477.9 65,486C65.6,494.1 70.05,506.3 72,512C73.95,517.7 77.7,519.5 78,524C78.3,528.5 74.3,537.5 74,542C73.7,546.5 71.5,551.9 76,554C80.5,556.1 99.5,558.4 104,556C108.5,553.6 106.6,542.8 106,538C105.4,533.2 100.45,530 100,524C99.55,518 101.95,506.1 103,498C104.05,489.9 106.7,478.4 107,470C107.3,461.6 105,450.7 105,442C105,433.3 106.25,424 107,412C107.75,400 109.1,374.3 110,362C110.9,349.7 112.1,336.9 113,330C113.9,323.1 115.1,316 116,316C116.9,316 118.1,323.1 119,330C119.9,336.9 121.1,349.7 122,362C122.9,374.3 124.25,400 125,412C125.75,424 127,433.3 127,442C127,450.7 124.7,461.6 125,470C125.3,478.4 127.95,489.9 129,498C130.05,506.1 132.45,518 132,524C131.55,530 126.6,533.2 126,538C125.4,542.8 123.5,553.6 128,556C132.5,558.4 151.5,556.1 156,554C160.5,551.9 158.3,546.5 158,542C157.7,537.5 153.7,528.5 154,524C154.3,519.5 158.05,517.7 160,512C161.95,506.3 166.4,494.1 167,486C167.6,477.9 164.75,465.8 164,458C163.25,450.2 161.85,442.7 162,434C162.15,425.3 163.8,411.7 165,400C166.2,388.3 168.65,367.7 170,356C171.35,344.3 173.4,330.1 174,322C174.6,313.9 175.2,308 174,302C172.8,296 167.8,288.6 166,282C164.2,275.4 160.8,265.2 162,258C163.2,250.8 172.05,241.2 174,234C175.95,226.8 175.3,216.9 175,210C174.7,203.1 171.55,186.8 172,188C172.45,189.2 176.2,208.7 178,218C179.8,227.3 182.5,241 184,250C185.5,259 186.8,269.6 188,278C189.2,286.4 190.8,298.2 192,306C193.2,313.8 194.8,321.9 196,330C197.2,338.1 197.75,354 200,360C202.25,366 208.15,370.6 211,370C213.85,369.4 217.35,362 219,356C220.65,350 221.85,337.5 222,330C222.15,322.5 220.75,313.8 220,306C219.25,298.2 217.9,286.4 217,278C216.1,269.6 214.6,257.8 214,250C213.4,242.2 213.45,234.1 213,226C212.55,217.9 211.75,205 211,196C210.25,187 209.2,174.4 208,166C206.8,157.6 205.4,146.9 203,140C200.6,133.1 196.65,124.2 192,120C187.35,115.8 178.3,114.1 172,112C165.7,109.9 155.7,107.8 150,106C144.3,104.2 136.7,103 134,100C131.3,97 132.6,90.05 132,86C131.4,81.95 129.4,76.6 130,73C130.6,69.4 134.35,66.35 136,62C137.65,57.65 140.7,49.7 141,44C141.3,38.3 139.95,29.25 138,24C136.05,18.75 131.3,11.55 128,9C124.7,6.45 119.6,7 116,7Z" fill="none" stroke="#243348" stroke-width="1.6" stroke-linejoin="round"/>
  </g>
</svg>
